<svg xmlns="http://www.w3.org/2000/svg" viewBox="0 0 583.95 465.25"><g id="レイヤー_2" data-name="レイヤー 2"><g id="room-logo"><circle cx="292.15" cy="232.63" r="232.63" style="fill:#e2844a"/><path d="M22.13,375.86a28.77,28.77,0,0,0,40.69,0L265.14,173.54c8.41-8.42,12.63-7.26,15.31-4.57,5.13,5.12,1.23,12.44-2.93,20L227,276.64c-17.1,29.31-3.48,56.7,20.93,81.11,26.85,26.85,56.13,33.69,86.73,3.09L584,111.52,561.82,89.39a28.77,28.77,0,0,0-40.69,0l-201.95,202c-5.09,5.1-12.23,12.24-17.6,6.87-5.86-5.86.34-16,5.52-24.57l44.8-75.55c20.45-34.12,15.25-58.7-14-88s-57.31-36.91-90.46-3.76L0,353.73Z" style="fill:#f1c279"/></g></g></svg>